<svg width="1087" height="218" viewBox="0 0 1087 218" fill="none" xmlns="http://www.w3.org/2000/svg">
<path d="M150.15 172.899C141.756 189.24 124.054 199.936 106.074 199.936C104.712 199.936 103.342 199.874 101.98 199.748C84.8332 198.171 71.5028 191.157 61.2094 178.292C52.1343 167.578 47.7536 153.629 48.533 137.97C49.6438 115.779 60.645 99.7522 72.2912 82.7846C77.093 75.779 82.065 68.5404 86.3562 60.7554C91.5611 51.3131 94.9027 40.9121 96.569 28.9703L96.7392 27.752L97.5544 28.6657C120.04 54.0723 115.301 72.9481 108.959 80.0971C108.645 80.4554 108.251 81.1094 107.839 81.8171C107.248 82.8115 106.585 83.9313 105.823 84.7645C105.85 84.7824 105.886 84.8003 105.913 84.8182C112.184 80.8675 116.305 75.8148 118.518 69.3557L118.831 68.4509L119.476 69.1586C126.553 76.9705 127.924 86.1262 126.849 92.0747C125.792 97.9068 123.006 101.723 118.088 104.106C95.4223 116.908 91.7672 127.954 91.1848 137.065C93.0841 149.535 100.278 156.639 112.578 158.064C121.877 157.849 128.417 154.812 131.4 149.293C133.487 145.423 133.738 142.001 132.197 138.185C129.635 135.416 127.037 134.064 124.26 134.064H124.242C120.399 134.064 116.233 136.635 111.154 142.144L110.741 142.583L110.329 142.144C107.283 138.937 108.117 135.04 108.797 131.914C109.03 130.803 109.254 129.755 109.29 128.85C109.416 125.84 111.664 121.226 115.722 118.234C116.815 117.347 118.195 116.738 120.112 115.896C121.814 115.143 123.929 114.22 126.634 112.733C130.056 110.861 135.897 106.301 136.623 96.8586L136.712 95.7208L137.563 96.4823C149.039 106.758 146.621 116.191 143.064 123.331C155.991 138.435 158.571 156.478 150.15 172.899Z" fill="#00A2DE"/>
<path d="M256.433 79.384V153.607C256.433 162.022 256.158 167.944 255.61 171.374C255.061 174.758 253.437 178.257 250.739 181.87C248.041 185.437 244.474 188.158 240.038 190.033C235.648 191.862 230.457 192.777 224.466 192.777C217.835 192.777 211.981 191.679 206.905 189.484C201.829 187.289 198.033 184.431 195.518 180.909C193.002 177.388 191.516 173.684 191.059 169.796C190.602 165.863 190.373 157.632 190.373 145.101V79.384H219.253V162.662C219.253 167.51 219.504 170.619 220.007 171.991C220.556 173.318 221.631 173.981 223.231 173.981C225.061 173.981 226.227 173.249 226.73 171.786C227.279 170.276 227.553 166.755 227.553 161.222V79.384H256.433ZM314.502 79.384V101.61L292.963 168.219H314.502V190.444H261.27V174.324L283.496 101.61H263.877V79.384H314.502ZM320.643 79.384H349.455C358.555 79.384 365.438 80.0929 370.103 81.5106C374.813 82.9283 378.609 85.8094 381.49 90.1539C384.371 94.4527 385.812 101.404 385.812 111.008C385.812 117.502 384.783 122.029 382.725 124.59C380.712 127.151 376.711 129.118 370.72 130.49C377.397 131.999 381.924 134.514 384.302 138.035C386.68 141.511 387.87 146.862 387.87 154.087V164.377C387.87 171.877 387.001 177.434 385.263 181.046C383.571 184.659 380.85 187.129 377.1 188.455C373.35 189.781 365.667 190.444 354.051 190.444H320.643V79.384ZM349.523 98.3857V123.081C350.758 123.035 351.718 123.012 352.404 123.012C355.24 123.012 357.046 122.326 357.824 120.954C358.601 119.537 358.99 115.535 358.99 108.95C358.99 105.474 358.67 103.05 358.029 101.678C357.389 100.261 356.543 99.3689 355.491 99.0031C354.485 98.6372 352.496 98.4314 349.523 98.3857ZM349.523 140.368V171.443C353.593 171.305 356.177 170.665 357.275 169.522C358.418 168.379 358.99 165.566 358.99 161.084V150.726C358.99 145.97 358.487 143.089 357.481 142.083C356.474 141.077 353.822 140.505 349.523 140.368ZM396.892 79.384H445.047V101.61H425.771V122.669H443.813V143.798H425.771V168.219H446.968V190.444H396.892V79.384ZM522.736 79.384L506.204 129.529L524.314 190.444H494.474L482.812 142.837V190.444H453.932V79.384H482.812V122.532L495.64 79.384H522.736ZM592.467 79.384V190.444H567.155L552.132 139.956V190.444H527.985V79.384H552.132L568.321 129.392V79.384H592.467ZM602.724 79.384H650.88V101.61H631.604V122.669H649.645V143.798H631.604V168.219H652.801V190.444H602.724V79.384ZM659.765 79.384H708.675V101.61H688.645V122.669H706.48V143.798H688.645V190.444H659.765V79.384ZM772.507 79.384V101.61H755.358V190.444H726.478V101.61H709.397V79.384H772.507ZM777.688 79.384H825.844V101.61H806.568V122.669H824.609V143.798H806.568V168.219H827.764V190.444H777.688V79.384ZM900.994 120.268H872.114V110.185C872.114 103.828 871.84 99.8491 871.291 98.2485C870.742 96.6479 869.439 95.8476 867.381 95.8476C865.598 95.8476 864.386 96.5335 863.745 97.9055C863.105 99.2775 862.785 102.799 862.785 108.47V161.77C862.785 166.755 863.105 170.048 863.745 171.648C864.386 173.203 865.666 173.981 867.587 173.981C869.691 173.981 871.108 173.089 871.84 171.305C872.617 169.522 873.006 166.046 873.006 160.879V147.708H867.175V130.833H900.994V190.444H882.816L880.14 182.487C878.174 185.917 875.682 188.501 872.663 190.239C869.691 191.931 866.169 192.777 862.099 192.777C857.252 192.777 852.701 191.611 848.448 189.278C844.241 186.9 841.04 183.973 838.844 180.498C836.649 177.022 835.277 173.386 834.728 169.591C834.18 165.749 833.905 160.01 833.905 152.372V119.377C833.905 108.767 834.477 101.061 835.62 96.2592C836.764 91.4573 840.033 87.067 845.43 83.0883C850.872 79.0639 857.892 77.0517 866.489 77.0517C874.95 77.0517 881.97 78.7895 887.549 82.2651C893.128 85.7408 896.764 89.8795 898.456 94.6814C900.148 99.4375 900.994 106.366 900.994 115.467V120.268ZM960.71 79.384L977.242 190.444H947.677L946.236 170.482H935.878L934.163 190.444H904.254L918.934 79.384H960.71ZM945.413 150.795C943.949 138.218 942.486 122.692 941.023 104.217C938.096 125.436 936.266 140.962 935.535 150.795H945.413ZM1032.64 79.384V101.61L1011.1 168.219H1032.64V190.444H979.405V174.324L1001.63 101.61H982.011V79.384H1032.64Z" fill="#EE7427"/>
</svg>
