<svg xmlns="http://www.w3.org/2000/svg" width="262.626" height="66" viewBox="0 0 262.626 66">
  <g id="Сгруппировать_222" data-name="Сгруппировать 222" transform="translate(-270.607 -393.863)">
    <g id="Сгруппировать_221" data-name="Сгруппировать 221" transform="translate(270.607 393.863)">
      <path id="Контур_380" data-name="Контур 380" d="M276.48,393.863h25.366a5.891,5.891,0,0,1,5.873,5.873v.976H285.243a7.811,7.811,0,0,0-5.527,2.3l-.006.007a7.81,7.81,0,0,0-2.3,5.527v22.43h-.929a5.889,5.889,0,0,1-5.873-5.873V399.736A5.89,5.89,0,0,1,276.48,393.863Z" transform="translate(-270.607 -393.863)" fill="#4ec1f1" fill-rule="evenodd"/>
      <path id="Контур_381" data-name="Контур 381" d="M283.713,400.9H310.09a6.125,6.125,0,0,1,6.107,6.107v.724h-23.2a8.124,8.124,0,0,0-6.413,2.634,10.362,10.362,0,0,0-2.221,6.991v22.135h-.646a6.126,6.126,0,0,1-6.107-6.107V407.008A6.125,6.125,0,0,1,283.713,400.9Z" transform="translate(-269.077 -392.325)" fill="#71b164" fill-rule="evenodd"/>
      <path id="Контур_382" data-name="Контур 382" d="M291.473,407.924h35.053a6.928,6.928,0,0,1,6.908,6.908v35.05a6.928,6.928,0,0,1-6.908,6.908H291.473a6.928,6.928,0,0,1-6.908-6.908v-34.06c0-4.941,2.347-7.9,6.908-7.9Zm10.144,32.015c-.464-.517-1.894-4.565-4.027-5.671-1.078-.559-4.135,2.013-4.481,3.444-.179.743.57,1.357.925,1.825a26.035,26.035,0,0,1,3.374,5.309c.891,1.617,1.013,2.3,3.193,2.577,2.645-.088,2.825.116,3.9-1.594a33.042,33.042,0,0,0,2.286-3.5c5.855-10.185,10.8-15.98,19.275-24.124l.591-2.229a84.845,84.845,0,0,0-23.563,22.365C302.712,438.892,302.379,439.871,301.617,439.939Z" transform="translate(-267.557 -390.79)" fill="#008ddb" fill-rule="evenodd"/>
    </g>
    <path id="Контур_383" data-name="Контур 383" d="M345.262,423.123a9.883,9.883,0,0,1,2.081-1.346,7.044,7.044,0,0,1,3.217-.673,7.891,7.891,0,0,1,2.145.273,9.259,9.259,0,0,1,1.7.652,6.774,6.774,0,0,1,1.22.779,6.153,6.153,0,0,1,.736.693,8.316,8.316,0,0,1,2.186-1.661,7.981,7.981,0,0,1,3.785-.736,7.582,7.582,0,0,1,5.425,1.829q1.936,1.83,1.934,5.909v12.447h-5.466V428.744q0-3.091-.968-4.353a2.907,2.907,0,0,0-2.4-1.268,4.766,4.766,0,0,0-2.123.462,4.439,4.439,0,0,0-1.493,1.143,8.262,8.262,0,0,1,.336.932,9.907,9.907,0,0,1,.23,1.24,14.339,14.339,0,0,1,.106,1.885v12.5h-5.468V428.744q0-3.091-.968-4.353a2.907,2.907,0,0,0-2.4-1.268,3.576,3.576,0,0,0-1.892.568,5.1,5.1,0,0,0-1.345,1.121c.028.168.069.364.127.589a4.4,4.4,0,0,1,.125.721c.028.28.043.59.043.932v14.235h-5.468v-14.3a12.875,12.875,0,0,0-.1-1.7,4.108,4.108,0,0,0-.4-1.345,1.948,1.948,0,0,0-.883-.863,3.385,3.385,0,0,0-1.513-.294h-.42v-1.262h4.164a6.043,6.043,0,0,1,2.186.358,2.555,2.555,0,0,1,1.388,1.24Zm38.646,20.9a13.945,13.945,0,0,1-1.345,2.819,7.166,7.166,0,0,1-1.513,1.724,4.792,4.792,0,0,1-1.746.882,7.835,7.835,0,0,1-2.04.252h-1.682v-1.472a9.723,9.723,0,0,0,2-.189,5.2,5.2,0,0,0,1.662-.652,4.891,4.891,0,0,0,1.345-1.24,8.057,8.057,0,0,0,1.052-2l.882-2.271-7.57-16.569q-1.387-3.069-3.91-3.364V421.1h3.7a6.078,6.078,0,0,1,3.322.9,5.633,5.633,0,0,1,2.145,2.46l4.836,10.6,5.13-13.542H392.4l-8.494,22.5Zm15.1-4.71a2.593,2.593,0,0,1-.673,1.851,2.864,2.864,0,0,1-3.785,0,2.882,2.882,0,0,1,0-3.7,2.861,2.861,0,0,1,3.785,0,2.59,2.59,0,0,1,.673,1.85Zm4-11.648a6.294,6.294,0,0,1,.693-3.07,5.5,5.5,0,0,1,1.935-2.04,8.623,8.623,0,0,1,2.881-1.115,17.569,17.569,0,0,1,3.533-.336h8.831v1.136l-3.785.5a6.653,6.653,0,0,1,2.881,2.061,4.527,4.527,0,0,1,1.115,2.86,6.505,6.505,0,0,1-.652,3.049,5.234,5.234,0,0,1-1.829,2,8.232,8.232,0,0,1-2.839,1.093,18.738,18.738,0,0,1-3.721.336,17.7,17.7,0,0,0-3.049.211q-1.157.21-1.156,1.052,0,.715,1.156.9a22.865,22.865,0,0,0,3.049.232,20.117,20.117,0,0,1,4.016.462,11.218,11.218,0,0,1,3.258,1.24,6.668,6.668,0,0,1,2.208,2.061,5.1,5.1,0,0,1,.82,2.881,5.372,5.372,0,0,1-2.944,5.089,10.739,10.739,0,0,1-3.28,1.093,25.031,25.031,0,0,1-8.179,0,10.751,10.751,0,0,1-3.26-1.093,5.371,5.371,0,0,1-2.944-5.089,4.109,4.109,0,0,1,.506-2.039,5.471,5.471,0,0,1,1.325-1.578,8.336,8.336,0,0,1,1.829-1.134,11.467,11.467,0,0,1,2.019-.715,3.249,3.249,0,0,1-1.346-.8,2.045,2.045,0,0,1-.546-1.513,2.242,2.242,0,0,1,1.682-2.1,6.587,6.587,0,0,1-2.985-2.165,5.433,5.433,0,0,1-1.22-3.469Zm7.4,10.6a4.935,4.935,0,0,0-2.187,1.746,5.511,5.511,0,0,0-.8,3.174,4.456,4.456,0,0,0,1.261,3.512,5.633,5.633,0,0,0,6.729,0,4.456,4.456,0,0,0,1.261-3.512,4.3,4.3,0,0,0-1.178-3.112,5.72,5.72,0,0,0-3.111-1.6l-1.977-.211Zm5-10.6a5.923,5.923,0,0,0-.947-3.637,2.915,2.915,0,0,0-2.418-1.24,2.987,2.987,0,0,0-2.419,1.156,5.873,5.873,0,0,0-.946,3.721,5.676,5.676,0,0,0,.946,3.7,3.221,3.221,0,0,0,4.836,0,5.668,5.668,0,0,0,.947-3.7Zm23.759,3.742a19.151,19.151,0,0,0-.273-3.342,10.345,10.345,0,0,0-.82-2.671,4.7,4.7,0,0,0-1.388-1.766,3.28,3.28,0,0,0-3.869,0,4.7,4.7,0,0,0-1.388,1.766,10.347,10.347,0,0,0-.82,2.671,20.609,20.609,0,0,0,0,6.686,10.338,10.338,0,0,0,.82,2.67,4.7,4.7,0,0,0,1.388,1.767,3.285,3.285,0,0,0,3.869,0,4.7,4.7,0,0,0,1.388-1.767,10.336,10.336,0,0,0,.82-2.67,19.166,19.166,0,0,0,.273-3.344Zm-14.508,0a11.651,11.651,0,0,1,.693-4.037,9.5,9.5,0,0,1,2-3.279,9.287,9.287,0,0,1,3.174-2.187,11.573,11.573,0,0,1,8.453,0,9.286,9.286,0,0,1,3.174,2.187,9.52,9.52,0,0,1,2,3.279,12.1,12.1,0,0,1,0,8.074,9.514,9.514,0,0,1-2,3.28,9.3,9.3,0,0,1-3.174,2.187,11.59,11.59,0,0,1-8.453,0,9.3,9.3,0,0,1-3.174-2.187,9.5,9.5,0,0,1-2-3.28,11.646,11.646,0,0,1-.693-4.037Zm24.433-5.046a16.784,16.784,0,0,0-1.892-3.28,2.645,2.645,0,0,0-1.851-1.052v-.841q.168,0,.715-.041t.841-.043a13.152,13.152,0,0,1,2.4.211,6.9,6.9,0,0,1,2.145.777,7.1,7.1,0,0,1,1.892,1.6,11.489,11.489,0,0,1,1.64,2.67l3.7,8.074,5.72-12.911h2.27L457.71,441.71H456.2l-7.107-15.349Zm23.466,12.952a2.588,2.588,0,0,1-.674,1.851,2.863,2.863,0,0,1-3.784,0,2.877,2.877,0,0,1,0-3.7,2.859,2.859,0,0,1,3.784,0,2.585,2.585,0,0,1,.674,1.85Zm5.087-12.321a7.432,7.432,0,0,0-.525-3.049q-.525-1.157-2.418-1.156h-.42v-1.262h5.046a5.277,5.277,0,0,1,1.829.274,2.427,2.427,0,0,1,1.177.9,4.024,4.024,0,0,1,.61,1.683,16.909,16.909,0,0,1,.168,2.608v7.022q0,3.239.925,4.521a3.067,3.067,0,0,0,2.649,1.282,3.15,3.15,0,0,0,1.662-.42,5.278,5.278,0,0,0,1.156-.925,6.39,6.39,0,0,0,.966-1.388v-15.56h5.468v19.765h-3.575L490.89,439.4h-.21a7.976,7.976,0,0,1-1.388,1.178,6.879,6.879,0,0,1-1.64.8,6.774,6.774,0,0,1-2.229.336q-3.954,0-5.866-1.829t-1.914-5.909v-6.98Zm41-5.468L506.7,439.4h11.06v1.892H500.1v-1.3l11.06-16.57H506.2a5.653,5.653,0,0,0-3.764.967,3.888,3.888,0,0,0-1.072,3.028H500.1v-2.524a5.235,5.235,0,0,1,.147-1.24,2.523,2.523,0,0,1,.546-1.072,2.924,2.924,0,0,1,1.094-.757,4.615,4.615,0,0,1,1.788-.295Z" transform="translate(14.588 -3.047)" fill="#0082c1" fill-rule="evenodd"/>
  </g>
</svg>
