<svg xmlns="http://www.w3.org/2000/svg" xmlns:xlink="http://www.w3.org/1999/xlink"  width="200px" height="200px" viewBox="0 0 120 120" preserveAspectRatio="xMidYMid">
 <g transform="translate(50 50)">  <g transform="translate(-19 -19) scale(0.6)"> <g transform="rotate(4.0095)">
<animateTransform attributeName="transform" type="rotate" values="0;45" keyTimes="0;1" dur="0.2s" begin="0s" repeatCount="indefinite"></animateTransform><path d="M30.47620823881685 22.698033645764824 L37.54727605068232 29.7691014576303 L29.769101457630303 37.54727605068232 L22.698033645764827 30.47620823881685 A38 38 0 0 1 5.500000000000001 37.59986702104145 L5.500000000000001 37.59986702104145 L5.500000000000002 47.59986702104145 L-5.499999999999996 47.59986702104145 L-5.4999999999999964 37.59986702104145 A38 38 0 0 1 -22.698033645764816 30.476208238816856 L-22.698033645764816 30.476208238816856 L-29.769101457630292 37.54727605068233 L-37.54727605068233 29.7691014576303 L-30.476208238816852 22.698033645764824 A38 38 0 0 1 -37.59986702104145 5.5000000000000115 L-37.59986702104145 5.5000000000000115 L-47.59986702104145 5.500000000000012 L-47.59986702104145 -5.500000000000002 L-37.59986702104145 -5.500000000000003 A38 38 0 0 1 -30.476208238816856 -22.698033645764816 L-30.476208238816856 -22.698033645764816 L-37.547276050682335 -29.76910145763029 L-29.769101457630313 -37.547276050682314 L-22.698033645764838 -30.476208238816838 A38 38 0 0 1 -5.499999999999997 -37.59986702104145 L-5.499999999999997 -37.59986702104145 L-5.499999999999999 -47.59986702104145 L5.499999999999981 -47.59986702104145 L5.499999999999983 -37.59986702104145 A38 38 0 0 1 22.698033645764827 -30.47620823881685 L22.698033645764827 -30.47620823881685 L29.7691014576303 -37.54727605068233 L37.547276050682314 -29.76910145763032 L30.476208238816838 -22.69803364576484 A38 38 0 0 1 37.59986702104145 -5.499999999999999 L37.59986702104145 -5.499999999999999 L47.59986702104145 -5.500000000000002 L47.59986702104145 5.499999999999979 L37.59986702104145 5.499999999999981 A38 38 0 0 1 30.47620823881685 22.698033645764824 M0 -23A23 23 0 1 0 0 23 A23 23 0 1 0 0 -23" fill="#000000"></path></g></g> <g transform="translate(0 28) scale(0.6)"> <g transform="rotate(18.4905)">
<animateTransform attributeName="transform" type="rotate" values="45;0" keyTimes="0;1" dur="0.2s" begin="-0.1s" repeatCount="indefinite"></animateTransform><path d="M-30.476208238816856 -22.698033645764816 L-37.547276050682335 -29.76910145763029 L-29.769101457630313 -37.547276050682314 L-22.698033645764838 -30.476208238816838 A38 38 0 0 1 -5.499999999999997 -37.59986702104145 L-5.499999999999997 -37.59986702104145 L-5.499999999999999 -47.59986702104145 L5.499999999999981 -47.59986702104145 L5.499999999999983 -37.59986702104145 A38 38 0 0 1 22.698033645764827 -30.47620823881685 L22.698033645764827 -30.47620823881685 L29.7691014576303 -37.54727605068233 L37.547276050682314 -29.76910145763032 L30.476208238816838 -22.69803364576484 A38 38 0 0 1 37.59986702104145 -5.499999999999999 L37.59986702104145 -5.499999999999999 L47.59986702104145 -5.500000000000002 L47.59986702104145 5.499999999999979 L37.59986702104145 5.499999999999981 A38 38 0 0 1 30.47620823881685 22.698033645764824 L30.47620823881685 22.698033645764824 L37.54727605068233 29.7691014576303 L29.76910145763032 37.54727605068231 L22.69803364576484 30.476208238816834 A38 38 0 0 1 5.500000000000001 37.59986702104145 L5.500000000000001 37.59986702104145 L5.5000000000000036 47.59986702104145 L-5.499999999999976 47.59986702104145 L-5.499999999999979 37.59986702104145 A38 38 0 0 1 -22.69803364576477 30.476208238816888 L-22.69803364576477 30.476208238816888 L-29.769101457630235 37.54727605068237 L-37.5472760506823 29.769101457630327 L-30.476208238816834 22.698033645764845 A38 38 0 0 1 -37.59986702104144 5.500000000000037 L-37.59986702104144 5.500000000000037 L-47.59986702104144 5.500000000000041 L-47.59986702104145 -5.500000000000006 L-37.59986702104145 -5.50000000000001 A38 38 0 0 1 -30.476208238816852 -22.69803364576482 M0 -23A23 23 0 1 0 0 23 A23 23 0 1 0 0 -23" fill="#fefefe"></path></g></g>
<g transform="translate(40 -5) scale(0.6)"> <g transform="rotate(4.0095)">
<animateTransform attributeName="transform" type="rotate" values="0;45" keyTimes="0;1" dur="0.2s" begin="0s" repeatCount="indefinite"></animateTransform><path d="M30.47620823881685 22.698033645764824 L37.54727605068232 29.7691014576303 L29.769101457630303 37.54727605068232 L22.698033645764827 30.47620823881685 A38 38 0 0 1 5.500000000000001 37.59986702104145 L5.500000000000001 37.59986702104145 L5.500000000000002 47.59986702104145 L-5.499999999999996 47.59986702104145 L-5.4999999999999964 37.59986702104145 A38 38 0 0 1 -22.698033645764816 30.476208238816856 L-22.698033645764816 30.476208238816856 L-29.769101457630292 37.54727605068233 L-37.54727605068233 29.7691014576303 L-30.476208238816852 22.698033645764824 A38 38 0 0 1 -37.59986702104145 5.5000000000000115 L-37.59986702104145 5.5000000000000115 L-47.59986702104145 5.500000000000012 L-47.59986702104145 -5.500000000000002 L-37.59986702104145 -5.500000000000003 A38 38 0 0 1 -30.476208238816856 -22.698033645764816 L-30.476208238816856 -22.698033645764816 L-37.547276050682335 -29.76910145763029 L-29.769101457630313 -37.547276050682314 L-22.698033645764838 -30.476208238816838 A38 38 0 0 1 -5.499999999999997 -37.59986702104145 L-5.499999999999997 -37.59986702104145 L-5.499999999999999 -47.59986702104145 L5.499999999999981 -47.59986702104145 L5.499999999999983 -37.59986702104145 A38 38 0 0 1 22.698033645764827 -30.47620823881685 L22.698033645764827 -30.47620823881685 L29.7691014576303 -37.54727605068233 L37.547276050682314 -29.76910145763032 L30.476208238816838 -22.69803364576484 A38 38 0 0 1 37.59986702104145 -5.499999999999999 L37.59986702104145 -5.499999999999999 L47.59986702104145 -5.500000000000002 L47.59986702104145 5.499999999999979 L37.59986702104145 5.499999999999981 A38 38 0 0 1 30.47620823881685 22.698033645764824 M0 -23A23 23 0 1 0 0 23 A23 23 0 1 0 0 -23" fill="#000000"></path></g></g></g>
</svg>