<?xml version="1.0" standalone="no"?>
<!DOCTYPE svg PUBLIC "-//W3C//DTD SVG 20010904//EN"
 "http://www.w3.org/TR/2001/REC-SVG-20010904/DTD/svg10.dtd">
<svg version="1.0" xmlns="http://www.w3.org/2000/svg"
 width="32.000000pt" height="32.000000pt" viewBox="0 0 32.000000 32.000000"
 preserveAspectRatio="xMidYMid meet">

<g transform="translate(0.000000,32.000000) scale(0.100000,-0.100000)"
fill="#fd7e14" stroke="none">
<path d="M40 311 c0 -5 -9 -11 -20 -14 -15 -4 -20 -14 -20 -36 l0 -31 160 0
160 0 0 31 c0 22 -5 32 -20 36 -11 3 -20 9 -20 14 0 5 -9 4 -19 -3 -15 -9 -23
-9 -35 1 -11 9 -16 10 -16 2 0 -15 -37 -14 -44 2 -5 10 -7 10 -12 0 -7 -16
-44 -17 -44 -2 0 8 -5 7 -16 -2 -12 -10 -20 -10 -35 -1 -10 7 -19 8 -19 3z
m20 -26 c0 -8 -4 -15 -10 -15 -5 0 -10 7 -10 15 0 8 5 15 10 15 6 0 10 -7 10
-15z m50 -6 c0 -11 -4 -17 -10 -14 -5 3 -10 13 -10 21 0 8 5 14 10 14 6 0 10
-9 10 -21z m60 6 c0 -8 -4 -15 -10 -15 -5 0 -10 7 -10 15 0 8 5 15 10 15 6 0
10 -7 10 -15z m60 1 c0 -8 -4 -18 -10 -21 -5 -3 -10 3 -10 14 0 12 5 21 10 21
6 0 10 -6 10 -14z m50 -1 c0 -8 -4 -15 -10 -15 -5 0 -10 7 -10 15 0 8 5 15 10
15 6 0 10 -7 10 -15z"/>
<path d="M2 108 l3 -103 155 0 155 0 3 103 3 102 -161 0 -161 0 3 -102z m143
7 c0 -34 -3 -40 -22 -43 -15 -2 -23 2 -23 12 0 10 6 13 18 9 15 -6 15 -4 -2
15 -21 25 -15 55 11 50 14 -2 18 -13 18 -43z m78 24 c5 -9 7 -28 3 -43 -5 -21
-12 -27 -29 -24 -23 3 -35 43 -23 75 7 18 35 14 49 -8z"/>
<path d="M110 130 c0 -5 5 -10 10 -10 6 0 10 5 10 10 0 6 -4 10 -10 10 -5 0
-10 -4 -10 -10z"/>
<path d="M190 115 c0 -14 5 -25 10 -25 6 0 10 11 10 25 0 14 -4 25 -10 25 -5
0 -10 -11 -10 -25z"/>
</g>
</svg>
