<?xml version="1.0" standalone="no"?>
<!DOCTYPE svg PUBLIC "-//W3C//DTD SVG 20010904//EN"
 "http://www.w3.org/TR/2001/REC-SVG-20010904/DTD/svg10.dtd">
<svg version="1.0" xmlns="http://www.w3.org/2000/svg"
 width="900.000000pt" height="900.000000pt" viewBox="0 0 900.000000 900.000000"
 preserveAspectRatio="xMidYMid meet">

<g transform="translate(0.000000,900.000000) scale(0.100000,-0.100000)"
fill="#fd5d14" stroke="none">
<path d="M2435 8069 c-71 -27 -160 -61 -197 -75 -38 -14 -68 -31 -68 -38 0
-13 267 -727 275 -735 6 -5 415 150 415 158 1 20 -277 741 -285 740 -5 0 -68
-23 -140 -50z"/>
<path d="M3110 7695 l0 -285 225 0 225 0 0 60 0 60 975 0 975 0 0 -720 0 -720
755 0 755 0 0 -1830 0 -1830 -1260 0 -1260 0 0 -225 0 -225 1485 0 1485 0 -2
2248 -3 2247 -28 57 c-23 47 -70 97 -285 300 -142 133 -457 432 -701 663 -259
246 -464 432 -494 450 l-52 30 -1397 3 -1398 2 0 -285z m3343 -815 c191 -178
347 -328 347 -332 0 -5 -189 -8 -420 -8 l-420 0 0 401 0 401 73 -69 c41 -37
230 -214 420 -393z"/>
<path d="M1400 7405 l-155 -155 283 -282 282 -283 155 155 c85 85 155 159 155
165 0 13 -542 555 -555 555 -6 0 -80 -70 -165 -155z"/>
<path d="M3100 7109 c-492 -74 -915 -352 -1177 -774 -304 -489 -331 -1117 -69
-1622 71 -136 126 -216 241 -353 125 -149 204 -268 270 -405 99 -205 156 -429
171 -668 5 -81 11 -123 21 -133 12 -12 129 -14 782 -14 883 0 801 -10 801 101
0 227 73 522 181 733 79 155 125 221 282 402 196 226 327 502 378 799 29 165
24 457 -10 615 -114 522 -446 947 -921 1174 -159 76 -311 120 -505 145 -192
25 -280 25 -445 0z m485 -453 c162 -35 286 -88 426 -181 110 -73 230 -187 307
-290 103 -138 194 -355 222 -528 17 -109 12 -317 -11 -430 -52 -257 -119 -382
-362 -679 -100 -122 -180 -246 -252 -393 -75 -153 -115 -263 -160 -440 l-32
-130 -389 -3 -389 -2 -23 107 c-72 337 -222 635 -459 919 -198 236 -286 411
-328 651 -19 111 -19 318 0 422 99 522 529 925 1055 990 101 13 309 6 395 -13z"/>
<path d="M897 6733 c-13 -23 -169 -405 -166 -407 2 -1 54 -23 114 -48 61 -25
224 -94 364 -152 139 -59 255 -105 257 -103 14 14 170 404 164 410 -6 6 -717
307 -726 307 -2 0 -5 -3 -7 -7z"/>
<path d="M600 5485 l0 -225 399 0 c310 0 400 3 403 13 3 6 4 107 4 222 l-2
210 -402 3 -402 2 0 -225z"/>
<path d="M5170 3885 l0 -225 308 2 307 3 3 223 2 222 -310 0 -310 0 0 -225z"/>
<path d="M5040 3145 l0 -225 630 0 630 0 0 225 0 225 -630 0 -630 0 0 -225z"/>
<path d="M2625 2952 c-73 -40 -109 -96 -113 -180 -3 -56 0 -74 20 -109 13 -23
297 -318 647 -672 582 -589 627 -632 680 -652 91 -34 171 -17 240 53 47 48 71
100 71 155 0 102 2 100 -680 773 -348 344 -647 633 -664 642 -50 28 -141 23
-201 -10z"/>
<path d="M3503 2940 c-72 -41 -104 -92 -110 -173 -5 -52 -2 -71 17 -108 29
-58 370 -403 426 -429 85 -42 203 -21 265 47 61 65 77 159 40 238 -23 48 -403
429 -444 444 -16 6 -54 11 -85 11 -45 0 -68 -7 -109 -30z"/>
<path d="M2673 2070 c-97 -23 -170 -102 -180 -194 -10 -101 6 -127 216 -339
206 -208 236 -229 330 -228 126 0 221 93 221 216 0 81 -20 109 -233 323 -179
180 -208 204 -251 217 -54 16 -56 16 -103 5z"/>
</g>
</svg>
