<?xml version="1.0" standalone="no"?>
<!DOCTYPE svg PUBLIC "-//W3C//DTD SVG 20010904//EN"
 "http://www.w3.org/TR/2001/REC-SVG-20010904/DTD/svg10.dtd">
<svg version="1.0" xmlns="http://www.w3.org/2000/svg"
 width="32.000000pt" height="32.000000pt" viewBox="0 0 32.000000 32.000000"
 preserveAspectRatio="xMidYMid meet">

<g transform="translate(0.000000,32.000000) scale(0.100000,-0.100000)"
fill="#fd7e14" stroke="none">
<path d="M48 303 c-9 -10 -24 -24 -32 -31 -13 -10 -16 -35 -16 -126 0 -149 -3
-146 162 -146 161 0 158 -3 158 148 0 89 -3 114 -16 124 -8 7 -23 21 -32 31
-20 21 -32 22 -32 2 0 -22 -56 -20 -70 3 -10 16 -10 16 -20 0 -14 -23 -70 -25
-70 -3 0 20 -12 19 -32 -2z m102 -50 c10 -17 10 -17 20 0 14 22 70 24 70 2 0
-17 16 -20 25 -5 11 18 25 10 25 -15 l0 -25 -130 0 -130 0 0 25 c0 25 14 33
25 15 9 -15 25 -12 25 5 0 22 56 20 70 -2z m20 -148 c0 -30 -4 -55 -10 -55 -5
0 -10 14 -10 30 0 20 -5 30 -15 30 -19 0 -19 9 2 32 26 29 33 21 33 -37z"/>
</g>
</svg>
