<svg height="512pt" viewBox="-31 0 511 512" width="512pt" xmlns="http://www.w3.org/2000/svg"><path d="m448.769531 418.109375v-27.484375c0-33.820312-17.046875-57.777344-51.976562-72.808594-21.53125-9.265625-33.332031-8.878906-116.902344-25.871094v-23.003906c25.0625-16.898437 38.082031-40.941406 40.6875-67.320312 12.5625-.511719 22.621094-10.890625 22.621094-23.570313v-17.832031c0-.1875-.003907-.375-.007813-.5625 8.261719-3.277344 14.121094-11.347656 14.121094-20.765625 0-11.238281-8.351562-20.566406-19.171875-22.101563v-7.894531c0-60.140625-48.753906-108.894531-108.898437-108.894531h-9.214844c-60.140625 0-108.894532 48.753906-108.894532 108.894531v7.894531c-10.824218 1.535157-19.171874 10.863282-19.171874 22.101563 0 9.417969 5.855468 17.488281 14.117187 20.765625-.003906.1875-.003906.375-.003906.5625v17.832031c0 12.679688 10.058593 23.058594 22.617187 23.570313 2.601563 26.324218 15.496094 50.332031 40.6875 67.316406v23.007812c-83.683594 17.015626-95.347656 16.597657-116.898437 25.871094-34.933594 15.03125-51.980469 38.988282-51.980469 72.804688v87.441406c0 18.746094 15.195312 33.9375 33.9375 33.9375h380.398438c18.742187 0 33.9375-15.191406 33.9375-33.933594v-29.949218c0-9.917969-15.003907-9.933594-15.003907 0v29.949218c0 10.453125-8.476562 18.929688-18.933593 18.929688h-37.417969c-2.027344-53.363282 5.863281-75.355469-10.984375-105.148438-13.542969-23.953125-7.722656-43.441406-9.121094-69.5625 3.007812 1.398438 76.457031 6.59375 76.457031 68.335938v27.488281c0 9.917969 15 9.933594 15 0zm-150.378906-107.285156c-27.757813 40.351562-27.117187 40.171875-31.835937 43.515625-3.445313 2.4375-6.898438 3.792968-11.355469 1.121094l-15.164063-9.09375c13.429688-7.707032 33.277344-21.707032 38.539063-39.394532zm-211.578125 136.722656h70.640625l-.003906 19.503906h-70.621094zm.03125 34.507813h73.859375c6.476563 0 11.746094-5.269532 11.746094-11.746094-.855469-22.699219 2.253906-28.636719-3.429688-34.324219-6.039062-6.039063-7.195312-2.296875-82.214843-3.441406.230468-11.691407 3.351562-23.152344 9.097656-33.3125 16.214844-28.679688 9.480468-52.125 11.0625-79.863281l27.867187-5.421876c5.78125 8.488282 46.925781 68.195313 66.949219 96.777344 10.042969 14.335938 15.351562 31.167969 15.355469 48.675782v37.597656h-130.28125zm122.390625-135.683594-15.164063 9.089844c-6.460937 3.878906-13.382812-1.398438-17.636718-7.5625-10.28125-14.886719-19.640625-28.480469-25.550782-37.074219l19.816407-3.851563c5.257812 17.6875 25.109375 31.6875 38.535156 39.398438zm15.402344 75.007812c-2.78125-6.738281-6.3125-13.191406-10.570313-19.265625-6.246094-8.921875-13.652344-19.566406-21.261718-30.546875 7.917968-1.199218 10.722656-4.835937 31.832031-16.9375 20.996093 12.039063 23.9375 15.742188 31.832031 16.9375-7.609375 10.980469-15.015625 21.625-21.265625 30.546875-4.253906 6.074219-7.789063 12.527344-10.566406 19.265625zm48.976562-395.214844c3.804688 2.050782 7.453125 4.351563 10.921875 6.886719v12.308594c-2.859375.761719-8.0625.761719-10.921875 0zm-43.515625-11.15625v53.359376c-2.863281.761718-8.0625.761718-10.921875 0v-53.359376c.71875-.007812 10.183594-.007812 10.921875 0zm-65.359375 18.042969c3.46875-2.535156 7.113281-4.835937 10.917969-6.886719v19.195313c-2.859375.761719-8.058594.761719-10.917969 0zm-15.003906 13.664063v1.34375c0 17.328125 40.925781 17.363281 40.925781 0v-28.351563c4.375-1.445312 8.886719-2.574219 13.511719-3.363281v54.722656c0 17.210938 40.929687 17.421875 40.929687 0v-54.722656c4.625.789062 9.136719 1.917969 13.507813 3.363281v28.351563c0 17.328125 40.929687 17.363281 40.929687 0v-1.34375c27.878907 31.480468 23.046876 66.550781 23.597657 69.851562h-197c.558593-3.339844-4.398438-38.242187 23.597656-69.851562zm-6.480469 147.265625c-.207031-9.675781-12.191406-7.003907-13.589844-7.339844-4.734374 0-8.585937-3.855469-8.585937-8.589844v-16.832031h31.953125c9.917969 0 9.929688-15.003906 0-15.003906h-38.746094c-4.039062 0-7.320312-3.285156-7.320312-7.324219 0-4.035156 3.28125-7.320313 7.320312-7.320313h220.703125c4.039063 0 7.320313 3.285157 7.320313 7.320313 0 4.039063-3.28125 7.324219-7.320313 7.324219h-151.953125c-9.917968 0-9.929687 15.003906 0 15.003906h145.160156v16.832031c0 4.734375-3.851562 8.589844-8.589843 8.589844-1.546875.371094-13.378907-2.304687-13.585938 7.339844-.988281 46.074219-39.863281 76.570312-81.382812 77.070312-41.398438-.5-80.394531-30.882812-81.382813-77.070312zm81.296875 92.074219h.167969c14.25-.160157 27.679688-3.085938 40.167969-8.726563v20.800781c0 8.117188-7.308594 17.902344-20.585938 27.554688-7.6875 5.585937-15.5 9.78125-19.664062 11.871094-4.167969-2.089844-11.980469-6.285157-19.667969-11.871094-13.273438-9.652344-20.585938-19.4375-20.585938-27.554688v-20.800781c12.488282 5.640625 25.921876 8.566406 40.167969 8.726563zm-209.046875 192.011718v-87.441406c0-32.746094 18.503906-52.84375 59.988282-65.136719l16.46875-3.203125c-1.398438 26.167969 4.417968 45.621094-9.121094 69.5625-16.878906 29.851563-8.960938 51.90625-10.988282 105.148438h-37.414062c-10.441406 0-18.933594-8.492188-18.933594-18.929688zm346.9375-11.015625h-70.652344v-19.503906h70.667969zm-9.070312-67.820312c5.746094 10.160156 8.867187 21.621093 9.097656 33.3125h-73.933594c-6.476562 0-11.746094 5.269531-11.746094 11.746093v26.015626c0 6.476562 5.269532 11.75 11.746094 11.75h73.894532l-.015626 14.941406h-130.277343v-37.597656c0-17.503907 5.3125-34.339844 15.355469-48.675782 19.777343-28.234375 61.4375-88.6875 66.949218-96.773437l27.867188 5.417969c1.59375 27.898437-5.15625 51.183593 11.0625 79.863281zm0 0"/></svg>