<?xml version="1.0" encoding="iso-8859-1"?>
<!-- Generator: Adobe Illustrator 19.0.0, SVG Export Plug-In . SVG Version: 6.00 Build 0)  -->
<svg version="1.1" id="Capa_1" xmlns="http://www.w3.org/2000/svg" xmlns:xlink="http://www.w3.org/1999/xlink" x="0px" y="0px"
	 viewBox="0 0 512 512" style="enable-background:new 0 0 512 512;" xml:space="preserve">
<g>
	<g>
		<path d="M504.5,484.976h-8.532V219.93c0-4.142-3.358-7.5-7.5-7.5c-4.142,0-7.5,3.358-7.5,7.5v265.046H327.629v-24.564
			c0-4.142-3.358-7.5-7.5-7.5h-16.548V348.186c0-4.142-3.358-7.5-7.5-7.5H215.92c-4.142,0-7.5,3.358-7.5,7.5v104.726h-16.548
			c-4.142,0-7.5,3.358-7.5,7.5v24.564H31.033v-8.531c0-4.142-3.358-7.5-7.5-7.5c-4.142,0-7.5,3.358-7.5,7.5v8.531H7.5
			c-4.142,0-7.5,3.358-7.5,7.5c0,4.143,3.358,7.5,7.5,7.5h497c4.142,0,7.5-3.357,7.5-7.5C512,488.334,508.642,484.976,504.5,484.976
			z M223.42,355.686h65.161v97.226H223.42V355.686z M312.629,484.976H199.371v-17.064h113.258V484.976z"/>
	</g>
</g>
<g>
	<g>
		<path d="M183.855,420.847h-0.516v-72.661c0-4.142-3.358-7.5-7.5-7.5H63.613c-4.142,0-7.5,3.358-7.5,7.5v72.661h-0.516
			c-4.142,0-7.5,3.358-7.5,7.5c0,4.142,3.358,7.5,7.5,7.5h128.258c4.142,0,7.5-3.358,7.5-7.5
			C191.355,424.205,187.997,420.847,183.855,420.847z M112.226,420.847H71.113v-65.161h41.113V420.847z M168.339,420.847h-41.113
			v-65.161h41.113V420.847z"/>
	</g>
</g>
<g>
	<g>
		<path d="M456.403,420.847h-0.516v-72.661c0-4.142-3.358-7.5-7.5-7.5H336.161c-4.142,0-7.5,3.358-7.5,7.5v72.661h-0.516
			c-4.142,0-7.5,3.358-7.5,7.5c0,4.142,3.358,7.5,7.5,7.5h128.258c4.142,0,7.5-3.358,7.5-7.5
			C463.903,424.205,460.545,420.847,456.403,420.847z M384.775,420.847h-41.113v-65.161h41.113V420.847z M440.888,420.847h-41.113
			v-65.161h41.113V420.847z"/>
	</g>
</g>
<g>
	<g>
		<path d="M264.016,372.75h-16.032c-4.142,0-7.5,3.358-7.5,7.5c0,4.142,3.358,7.5,7.5,7.5h16.032c4.142,0,7.5-3.358,7.5-7.5
			C271.516,376.108,268.159,372.75,264.016,372.75z"/>
	</g>
</g>
<g>
	<g>
		<path d="M296.081,212.428H215.92c-4.142,0-7.5,3.357-7.5,7.5v80.161c0,4.142,3.358,7.5,7.5,7.5h80.161c4.142,0,7.5-3.358,7.5-7.5
			v-80.161C303.581,215.786,300.223,212.428,296.081,212.428z M248.5,292.589h-25.08v-65.161h25.08V292.589z M288.581,292.589H263.5
			v-65.161h25.081V292.589z"/>
	</g>
</g>
<g>
	<g>
		<path d="M296.081,84.17H215.92c-4.142,0-7.5,3.358-7.5,7.5v80.161c0,4.142,3.358,7.5,7.5,7.5h80.161c4.142,0,7.5-3.358,7.5-7.5
			V91.67C303.581,87.528,300.223,84.17,296.081,84.17z M248.5,164.331h-25.08V99.17h25.08V164.331z M288.581,164.331H263.5V99.17
			h25.081V164.331z"/>
	</g>
</g>
<g>
	<g>
		<path d="M448.387,212.428H336.161c-4.142,0-7.5,3.357-7.5,7.5v80.161c0,4.142,3.358,7.5,7.5,7.5h112.226
			c4.142,0,7.5-3.358,7.5-7.5v-80.161C455.887,215.785,452.529,212.428,448.387,212.428z M384.774,292.589h-41.113v-65.161h41.113
			V292.589z M440.888,292.589h-41.113v-65.161h41.113V292.589z"/>
	</g>
</g>
<g>
	<g>
		<path d="M175.839,212.428H63.613c-4.142,0-7.5,3.357-7.5,7.5v80.161c0,4.142,3.358,7.5,7.5,7.5h112.226c4.142,0,7.5-3.358,7.5-7.5
			v-80.161C183.339,215.785,179.981,212.428,175.839,212.428z M112.226,292.589H71.113v-65.161h41.113V292.589z M168.339,292.589
			h-41.113v-65.161h41.113V292.589z"/>
	</g>
</g>
<g>
	<g>
		<path d="M510.029,166.763L423.823,72.72V43.057h0.516c4.142,0,7.5-3.358,7.5-7.5c0-4.143-3.358-7.5-7.5-7.5h-48.097
			c-4.142,0-7.5,3.357-7.5,7.5c0,4.142,3.358,7.5,7.5,7.5h0.517v25.081h-33.097v-8.533c0-2.841-1.605-5.438-4.146-6.708
			l-80.161-40.081c-2.111-1.056-4.597-1.056-6.708,0l-80.161,40.081c-2.541,1.271-4.146,3.867-4.146,6.708v8.533h-33.097V43.057
			h0.517c4.142,0,7.5-3.358,7.5-7.5c0-4.143-3.358-7.5-7.5-7.5H87.661c-4.142,0-7.5,3.357-7.5,7.5c0,4.142,3.358,7.5,7.5,7.5h0.516
			V72.72L1.972,166.763c-2.01,2.192-2.534,5.365-1.336,8.088c1.198,2.723,3.89,4.48,6.864,4.48h8.532v265.046
			c0,4.142,3.358,7.5,7.5,7.5c4.142,0,7.5-3.358,7.5-7.5V179.331h144.807c4.142,0,7.5-3.358,7.5-7.5V64.241L256,27.91l72.661,36.331
			v107.59c0,4.142,3.358,7.5,7.5,7.5h144.807v8.531c0,4.142,3.358,7.5,7.5,7.5c4.142,0,7.5-3.358,7.5-7.5v-8.531h8.532
			c2.974,0,5.667-1.757,6.865-4.48C512.563,172.128,512.038,168.955,510.029,166.763z M103.178,43.057h17.064v25.081h-17.064V43.057
			z M168.339,164.331H24.55l74.427-81.193h69.362V164.331z M391.759,43.057h17.064v25.081h-17.064V43.057z M343.66,164.331V83.138
			h0.001h69.362l74.427,81.193H343.66z"/>
	</g>
</g>
<g>
</g>
<g>
</g>
<g>
</g>
<g>
</g>
<g>
</g>
<g>
</g>
<g>
</g>
<g>
</g>
<g>
</g>
<g>
</g>
<g>
</g>
<g>
</g>
<g>
</g>
<g>
</g>
<g>
</g>
</svg>
