<?xml version="1.0" standalone="no"?>
<!DOCTYPE svg PUBLIC "-//W3C//DTD SVG 20010904//EN"
 "http://www.w3.org/TR/2001/REC-SVG-20010904/DTD/svg10.dtd">
<svg version="1.0" xmlns="http://www.w3.org/2000/svg"
 width="32.000000pt" height="32.000000pt" viewBox="0 0 32.000000 32.000000"
 preserveAspectRatio="xMidYMid meet">

<g transform="translate(0.000000,32.000000) scale(0.100000,-0.100000)"
fill="#fd7e14" stroke="none">
<path d="M23 297 c-13 -13 -23 -30 -23 -40 0 -15 14 -17 140 -17 l140 0 0 25
c0 15 -7 28 -17 32 -10 4 -22 11 -26 17 -6 8 -10 7 -14 -1 -2 -7 -13 -13 -23
-13 -10 0 -21 6 -24 13 -5 10 -7 10 -12 0 -3 -7 -14 -13 -24 -13 -10 0 -21 6
-24 13 -5 10 -7 10 -12 0 -7 -15 -44 -17 -44 -3 0 16 -13 11 -37 -13z m37 -12
c0 -8 -4 -15 -10 -15 -5 0 -10 7 -10 15 0 8 5 15 10 15 6 0 10 -7 10 -15z m60
0 c0 -8 -4 -15 -10 -15 -5 0 -10 7 -10 15 0 8 5 15 10 15 6 0 10 -7 10 -15z
m60 0 c0 -8 -4 -15 -10 -15 -5 0 -10 7 -10 15 0 8 5 15 10 15 6 0 10 -7 10
-15z m60 0 c0 -8 -4 -15 -10 -15 -5 0 -10 7 -10 15 0 8 5 15 10 15 6 0 10 -7
10 -15z"/>
<path d="M0 141 c0 -91 0 -91 95 -91 58 0 63 2 69 24 3 13 9 31 12 39 3 10 -1
17 -13 20 -12 3 -10 5 7 5 14 -1 37 4 52 10 15 6 35 9 43 6 12 -5 15 2 15 30
l0 36 -140 0 -140 0 0 -79z m125 39 c3 -5 -1 -10 -9 -10 -9 0 -16 5 -16 10 0
6 4 10 9 10 6 0 13 -4 16 -10z m55 0 c0 -5 -7 -10 -16 -10 -8 0 -12 5 -9 10 3
6 10 10 16 10 5 0 9 -4 9 -10z m60 0 c0 -5 -7 -10 -15 -10 -8 0 -15 5 -15 10
0 6 7 10 15 10 8 0 15 -4 15 -10z m-173 -46 c-3 -3 -12 -4 -19 -1 -8 3 -5 6 6
6 11 1 17 -2 13 -5z m60 0 c-3 -3 -12 -4 -19 -1 -8 3 -5 6 6 6 11 1 17 -2 13
-5z m-57 -44 c0 -5 -4 -10 -9 -10 -6 0 -13 5 -16 10 -3 6 1 10 9 10 9 0 16 -4
16 -10z m55 0 c-3 -5 -10 -10 -16 -10 -5 0 -9 5 -9 10 0 6 7 10 16 10 8 0 12
-4 9 -10z"/>
<path d="M205 115 c-14 -13 -25 -33 -25 -45 0 -28 43 -70 73 -70 29 0 67 39
67 69 0 28 -42 71 -70 71 -11 0 -32 -11 -45 -25z m55 -20 c0 -8 7 -15 15 -15
8 0 15 -4 15 -10 0 -5 -11 -10 -25 -10 -20 0 -25 5 -25 25 0 14 5 25 10 25 6
0 10 -7 10 -15z"/>
</g>
</svg>
