<?xml version="1.0" standalone="no"?>
<!DOCTYPE svg PUBLIC "-//W3C//DTD SVG 20010904//EN"
 "http://www.w3.org/TR/2001/REC-SVG-20010904/DTD/svg10.dtd">
<svg version="1.0" xmlns="http://www.w3.org/2000/svg"
 width="32.000000pt" height="32.000000pt" viewBox="0 0 32.000000 32.000000"
 preserveAspectRatio="xMidYMid meet">

<g transform="translate(0.000000,32.000000) scale(0.100000,-0.100000)"
fill="#fd7e14" stroke="none">
<path d="M40 307 c0 -8 -9 -17 -20 -20 -15 -4 -20 -14 -20 -36 l0 -31 160 0
160 0 0 31 c0 22 -5 32 -20 36 -11 3 -20 12 -20 20 0 8 -5 11 -11 7 -8 -4 -8
-9 0 -17 14 -14 14 -47 1 -47 -5 0 -10 9 -10 20 0 15 -7 20 -25 20 -18 0 -25
-5 -25 -20 0 -11 -4 -20 -10 -20 -13 0 -13 33 1 47 8 8 8 13 0 17 -6 4 -11 0
-11 -8 0 -11 -9 -16 -30 -16 -21 0 -30 5 -30 16 0 8 -5 12 -11 8 -8 -4 -8 -9
0 -17 14 -14 14 -47 1 -47 -5 0 -10 9 -10 20 0 15 -7 20 -25 20 -18 0 -25 -5
-25 -20 0 -11 -4 -20 -10 -20 -13 0 -13 33 1 47 8 8 8 13 0 17 -6 4 -11 1 -11
-7z"/>
<path d="M2 103 l3 -98 155 0 155 0 3 98 3 97 -161 0 -161 0 3 -97z m77 30
c12 10 14 9 7 -8 -5 -11 -11 -31 -14 -44 -4 -21 -6 -19 -18 15 -17 48 -17 51
-2 36 9 -9 15 -9 27 1z m59 0 c-21 -5 -23 -19 -5 -27 10 -5 10 -7 0 -12 -18
-8 -16 -22 5 -27 10 -3 6 -5 -10 -6 -26 -1 -28 2 -28 39 0 37 2 40 28 39 16
-1 20 -3 10 -6z m71 -24 c15 -44 15 -44 -19 -44 -16 0 -30 3 -30 6 0 16 23 69
30 69 4 0 13 -14 19 -31z m74 16 c4 -8 2 -17 -4 -21 -5 -3 -7 -15 -3 -27 6
-19 5 -20 -10 -8 -10 9 -16 10 -16 2 0 -6 -4 -11 -10 -11 -5 0 -10 18 -10 40
0 36 3 40 24 40 13 0 26 -7 29 -15z"/>
<path d="M250 120 c0 -5 5 -10 11 -10 5 0 7 5 4 10 -3 6 -8 10 -11 10 -2 0 -4
-4 -4 -10z"/>
</g>
</svg>
